<?xml version="1.0" encoding="utf-8"?>
<svg xml:space="preserve" viewBox="0 0 100 100" y="0" x="0" xmlns="http://www.w3.org/2000/svg" id="圖層_1" version="1.1" style="height: 100%; width: 100%; background: none; shape-rendering: auto;" width="200px" height="200px"><g class="ldl-scale" style="transform-origin: 50% 50%; transform: rotate(0deg) scale(0.8, 0.8);"><g class="ldl-ani"><g class="ldl-layer"><g class="ldl-ani" style="transform-origin: 50px 50px; transform: rotate(0deg); animation: 2.04082s linear -1.02041s infinite normal forwards running spin-09a8c35b-6037-402c-bd82-2a13772bc812;"><circle stroke-miterlimit="10" stroke-width="4" fill="none" stroke="#333" r="40" cy="50" cx="50" style="stroke: rgb(25, 34, 35);"></circle></g></g><g class="ldl-layer"><g class="ldl-ani" style="transform-origin: 50px 50px; transform: rotate(0deg); animation: 2.04082s linear -2.04082s infinite normal forwards running spin-09a8c35b-6037-402c-bd82-2a13772bc812;"><path stroke-miterlimit="10" stroke-width="4" fill="none" stroke="#333" d="M40.121 38.632l1.706-1.706a5.445 5.445 0 0 0 0-7.7l-2.632-2.632a5.445 5.445 0 0 0-7.7 0L30.18 27.91l-2.949 2.949a7.646 7.646 0 0 0-1.153 9.314c8.384 14.115 19.634 25.364 33.749 33.749a7.645 7.645 0 0 0 9.314-1.153l2.949-2.949 1.316-1.316a5.445 5.445 0 0 0 0-7.7l-2.632-2.632a5.445 5.445 0 0 0-7.7 0l-1.706 1.706a2.355 2.355 0 0 1-3.141.178 122.9 122.9 0 0 1-18.285-18.285 2.353 2.353 0 0 1 .179-3.139z" style="stroke: rgb(25, 34, 35);"></path></g></g><metadata xmlns:d="https://loading.io/stock/"><d:name>call</d:name><d:tags>call,dial,connect,contact,talk,speak,phone call</d:tags><d:license>by</d:license><d:slug>ccgw9r</d:slug></metadata></g></g><style id="spin-09a8c35b-6037-402c-bd82-2a13772bc812" data-anikit="">@keyframes spin-09a8c35b-6037-402c-bd82-2a13772bc812
{
  0% {
    animation-timing-function: cubic-bezier(0.5856,0.0703,0.4143,0.9297);
    transform: rotate(0deg);
  }
  100% {
    transform: rotate(360deg);
  }
}</style><!-- [ldio] generated by https://loading.io/ --></svg>