<?xml version="1.0" encoding="utf-8"?><svg xml:space="preserve" viewBox="0 0 100 100" y="0px" x="0px" xmlns:xlink="http://www.w3.org/1999/xlink" xmlns="http://www.w3.org/2000/svg" id="圖層_1" version="1.1" width="207px" height="207px" style="width:100%;height:100%;background-size:initial;background-repeat-y:initial;background-repeat-x:initial;background-position-y:initial;background-position-x:initial;background-origin:initial;background-color:initial;background-clip:initial;background-attachment:initial;animation-play-state:paused" ><g class="ldl-scale" style="transform-origin:50% 50%;transform:rotate(0deg) scale(0.8, 0.8);animation-play-state:paused" ><g style="animation-play-state:paused" ><rect height="26.7" width="70.2" fill="#E0E0E0" y="54.2" x="14.9" style="fill:rgb(224, 224, 224);animation-play-state:paused" ></rect>
<polygon points="83.3,30 16.7,30 7.5,54.2 92.5,54.2" fill="#77A4BD" style="fill:rgb(119, 164, 189);animation-play-state:paused" ></polygon>
<rect height="2.2" width="82.7" fill="#E0E0E0" y="80.8" x="9.3" style="fill:rgb(224, 224, 224);animation-play-state:paused" ></rect>
<rect height="21.2" width="37.5" fill="#333333" y="59.7" x="21.3" style="fill:rgb(51, 51, 51);animation-play-state:paused" ></rect></g>
<g style="animation-play-state:paused" ><path d="M38.1,76h1.1c0.3,0,0.6,0.3,0.6,0.6v1.8v1.8c0,0.3-0.3,0.6-0.6,0.6h-1.1c-0.3,0-0.6-0.3-0.6-0.6v-1.8v-1.8 C37.5,76.2,37.8,76,38.1,76z" style="animation-play-state:paused" ></path>
<path d="M28.3,76h-1.1c-0.3,0-0.6,0.3-0.6,0.6v1.8v1.8c0,0.3,0.3,0.6,0.6,0.6h1.1c0.3,0,0.6-0.3,0.6-0.6v-1.8v-1.8 C28.9,76.2,28.7,76,28.3,76z" style="animation-play-state:paused" ></path>
<path d="M40.4,78.4H26.1c-0.3,0-0.6-0.3-0.6-0.6V73c0-0.8,0.7-1.5,1.5-1.5h12.6c0.8,0,1.5,0.7,1.5,1.5v4.8 C41.1,78.1,40.8,78.4,40.4,78.4z" fill="#E15B64" style="fill:rgb(225, 91, 100);animation-play-state:paused" ></path>
<path d="M37.4,67.1h-8.2c-0.7,0-1.2,0.6-1.2,1.2v3.1h10.7v-3.1C38.6,67.7,38,67.1,37.4,67.1z" fill="#FFFFFF" opacity="0.3" style="fill:rgb(255, 255, 255);animation-play-state:paused" ></path>
<path d="M37.7,66.2h-8.9c-1.1,0-1.9,0.9-1.9,1.9v3.3h1v-3.1c0-0.7,0.6-1.2,1.2-1.2h8.2c0.7,0,1.2,0.6,1.2,1.2v3.1h1 v-3.3C39.6,67.1,38.7,66.2,37.7,66.2z" fill="#E15B64" style="fill:rgb(225, 91, 100);animation-play-state:paused" ></path>
<circle r="1.1" cy="73.3" cx="27.3" fill="#FFFFFF" style="fill:rgb(255, 255, 255);animation-play-state:paused" ></circle>
<circle r="1.1" cy="73.3" cx="39.1" fill="#FFFFFF" style="fill:rgb(255, 255, 255);animation-play-state:paused" ></circle>
<line y2="74" x2="37.2" y1="74" x1="29.3" stroke-miterlimit="10" stroke-linecap="round" stroke-width="0.4899" stroke="#FFFFFF" fill="none" style="stroke:rgb(255, 255, 255);animation-play-state:paused" ></line>
<line y2="75.4" x2="37.2" y1="75.4" x1="29.3" stroke-miterlimit="10" stroke-linecap="round" stroke-width="0.4899" stroke="#FFFFFF" fill="none" style="stroke:rgb(255, 255, 255);animation-play-state:paused" ></line>
<line y2="76.8" x2="37.2" y1="76.8" x1="29.3" stroke-miterlimit="10" stroke-linecap="round" stroke-width="0.4899" stroke="#FFFFFF" fill="none" style="stroke:rgb(255, 255, 255);animation-play-state:paused" ></line></g>
<g style="animation-play-state:paused" ><rect height="21.2" width="11.2" fill="#66503A" y="59.7" x="66.6" style="fill:rgb(102, 80, 58);animation-play-state:paused" ></rect>
<rect height="6" width="3" fill="#333333" y="61.5" x="68.4" style="fill:rgb(51, 51, 51);animation-play-state:paused" ></rect>
<rect height="6" width="3" fill="#333333" y="61.5" x="73.1" style="fill:rgb(51, 51, 51);animation-play-state:paused" ></rect>
<circle r="0.9" cy="70.5" cx="75.9" fill="#E0E0E0" style="fill:rgb(224, 224, 224);animation-play-state:paused" ></circle></g>
<g style="animation-play-state:paused" ><polygon points="42.9,17 26.9,30.2 26.9,46 42.9,46 58.9,46 58.9,30.2" fill="#E0E0E0" style="fill:rgb(224, 224, 224);animation-play-state:paused" ></polygon>
<rect height="11.4" width="15.5" fill="#333333" y="31.5" x="35.2" style="fill:rgb(51, 51, 51);animation-play-state:paused" ></rect>
<rect height="11.4" width="2.3" fill="#E0E0E0" y="31.5" x="41.8" style="fill:rgb(224, 224, 224);animation-play-state:paused" ></rect>
<polygon points="42.9,17 30.9,26.9 54.9,26.9" fill="#77A4BD" style="fill:rgb(119, 164, 189);animation-play-state:paused" ></polygon>
<polyline points="63.5,34.1 42.9,17 22.3,34.1" stroke-miterlimit="10" stroke-width="3.8636" stroke="#A0C8D7" fill="none" style="stroke:rgb(160, 200, 215);animation-play-state:paused" ></polyline></g>
<metadata xmlns:d="https://loading.io/stock/" style="animation-play-state:paused" ><d:name style="animation-play-state:paused" >garage</d:name>


<d:tags style="animation-play-state:paused" >building,garage,house,home,duplex,car,villa</d:tags>


<d:license style="animation-play-state:paused" >by</d:license>


<d:slug style="animation-play-state:paused" >35i85d</d:slug></metadata></g><!-- generated by https://loading.io/ --></svg>