<?xml version="1.0" encoding="utf-8"?>
<svg xmlns="http://www.w3.org/2000/svg" style="margin: auto; background: none; display: block; shape-rendering: auto;" width="611" height="257" preserveAspectRatio="xMidYMid">
<style type="text/css">
  text {
    text-anchor: middle; font-size: 80px; opacity: 0;
  }
</style>
<g style="transform-origin:305.5px 128.5px;transform:scale(1)">
<g transform="translate(305.5,128.5)">
  <g transform="translate(0,0)"><g class="path" style="transform: translateX(-78.4752px) skewX(30deg); opacity: 0; transform-origin: -225px -9.16209px; animation: 1s linear 0s 1 normal forwards running rush-ltr-in-081937c6-6403-42da-952b-ffb769b5a955;"><path d="M7.11 0L7.11-56.17L38.28-56.17L38.28-50.16L14.45-50.16L14.45-34.65L31.33-34.65L31.33-28.63L14.45-28.63L14.45-6.02L39.18-6.02L39.18 0L7.11 0" fill="#28292f" stroke="none" stroke-width="none" transform="translate(-248.14501953125,18.92291272844588)" style="fill: rgb(40, 41, 47);"></path></g><g class="path" style="transform: translateX(-78.4752px) skewX(30deg); opacity: 0; transform-origin: -185.955px -1.83709px; animation: 1s linear 0.0471429s 1 normal forwards running rush-ltr-in-081937c6-6403-42da-952b-ffb769b5a955;"><path d="M57.70-31.21L58.05-31.21L58.05-31.21Q59.26-33.63 60.64-35.59L60.64-35.59L60.64-35.59Q62.03-37.54 63.71-38.91L63.71-38.91L63.71-38.91Q65.23-40.23 67.07-40.88L67.07-40.88L67.07-40.88Q68.91-41.52 71.25-41.52L71.25-41.52L71.25-41.52Q72.03-41.52 73.07-41.45L73.07-41.45L73.07-41.45Q74.10-41.37 75.04-41.17L75.04-41.17L75.04-41.17Q74.88-39.22 74.67-37.50L74.67-37.50L74.67-37.50Q74.45-35.78 74.10-34.02L74.10-34.02L74.10-34.02Q72.15-34.38 70.53-34.53L70.53-34.53L70.53-34.53Q68.91-34.69 67.46-34.45L67.46-34.45L67.46-34.45Q65.74-34.14 64.47-33.30L64.47-33.30L64.47-33.30Q63.20-32.46 62.13-31.07L62.13-31.07L62.13-31.07Q61.05-29.69 60.04-27.75L60.04-27.75L60.04-27.75Q59.02-25.82 57.81-23.32L57.81-23.32L57.81 0L51.09 0L51.09-25.04L51.09-25.04Q51.09-27.50 51.04-29.38L51.04-29.38L51.04-29.38Q50.98-31.25 50.80-32.95L50.80-32.95L50.80-32.95Q50.63-34.65 50.27-36.31L50.27-36.31L50.27-36.31Q49.92-37.97 49.34-40L49.34-40L49.34-40Q50.98-40.43 52.56-40.78L52.56-40.78L52.56-40.78Q54.14-41.13 55.78-41.45L55.78-41.45L55.78-41.45Q56.33-39.88 56.66-38.67L56.66-38.67L56.66-38.67Q56.99-37.46 57.19-36.31L57.19-36.31L57.19-36.31Q57.38-35.16 57.48-33.96L57.48-33.96L57.48-33.96Q57.58-32.77 57.70-31.21L57.70-31.21" fill="#28292f" stroke="none" stroke-width="none" transform="translate(-248.14501953125,18.92291272844588)" style="fill: rgb(40, 41, 47);"></path></g><g class="path" style="transform: translateX(-78.4752px) skewX(30deg); opacity: 0; transform-origin: -160.975px -32.9721px; animation: 1s linear 0.0942857s 1 normal forwards running rush-ltr-in-081937c6-6403-42da-952b-ffb769b5a955;"><path d="M87.23-56.37L87.23-56.37L87.23-56.37Q89.02-56.37 90.35-55.12L90.35-55.12L90.35-55.12Q91.64-53.75 91.64-51.91L91.64-51.91L91.64-51.91Q91.64-50.04 90.35-48.75L90.35-48.75L90.35-48.75Q89.02-47.42 87.23-47.42L87.23-47.42L87.23-47.42Q85.35-47.42 84.02-48.75L84.02-48.75L84.02-48.75Q82.70-50 82.70-51.91L82.70-51.91L82.70-51.91Q82.70-53.79 84.02-55.12L84.02-55.12L84.02-55.12Q85.35-56.37 87.23-56.37" fill="#28292f" stroke="none" stroke-width="none" transform="translate(-248.14501953125,18.92291272844588)" style="fill: rgb(40, 41, 47);"></path></g><g class="path" style="transform: translateX(-78.4752px) skewX(30deg); opacity: 0; transform-origin: -160.995px -1.39209px; animation: 1s linear 0.141429s 1 normal forwards running rush-ltr-in-081937c6-6403-42da-952b-ffb769b5a955;"><path d="M83.79 0L83.79-40.63L90.51-40.63L90.51 0L83.79 0" fill="#28292f" stroke="none" stroke-width="none" transform="translate(-248.14501953125,18.92291272844588)" style="fill: rgb(40, 41, 47);"></path></g><g class="path" style="transform: translateX(-78.4752px) skewX(30deg); opacity: 0; transform-origin: -126.835px -9.20209px; animation: 1s linear 0.188571s 1 normal forwards running rush-ltr-in-081937c6-6403-42da-952b-ffb769b5a955;"><path d="M104.53 0L104.53-56.25L111.25-56.25L111.25-22.42L129.53-41.52L133.95-37.23L118.13-20.94L138.09 0L129.73 0L111.25-19.53L111.25 0L104.53 0" fill="#28292f" stroke="none" stroke-width="none" transform="translate(-248.14501953125,18.92291272844588)" style="fill: rgb(40, 41, 47);"></path></g><g class="path" style="transform: translateX(-78.4752px) skewX(30deg); opacity: 0; transform-origin: -57.48px -9.16209px; animation: 1s linear 0.235714s 1 normal forwards running rush-ltr-in-081937c6-6403-42da-952b-ffb769b5a955;"><path d="M205.74-33.87L205.74-56.17L213.09-56.17L213.09 0L205.74 0L205.74-27.85L175.59-27.85L175.59 0L168.24 0L168.24-56.17L175.59-56.17L175.59-33.87L205.74-33.87" fill="#28292f" stroke="none" stroke-width="none" transform="translate(-248.14501953125,18.92291272844588)" style="fill: rgb(40, 41, 47);"></path></g><g class="path" style="transform: translateX(-78.4752px) skewX(30deg); opacity: 0; transform-origin: -6.56002px -1.36709px; animation: 1s linear 0.282857s 1 normal forwards running rush-ltr-in-081937c6-6403-42da-952b-ffb769b5a955;"><path d="M255.20-7.54L257.15-2.27L257.15-2.27Q252.81-0.55 249.00 0.20L249.00 0.20L249.00 0.20Q245.20 0.94 242.19 0.94L242.19 0.94L242.19 0.94Q237.58 0.94 234.14-0.53L234.14-0.53L234.14-0.53Q230.70-1.99 228.42-4.65L228.42-4.65L228.42-4.65Q226.13-7.30 224.98-11.00L224.98-11.00L224.98-11.00Q223.83-14.69 223.83-19.14L223.83-19.14L223.83-19.14Q223.83-21.88 224.22-24.61L224.22-24.61L224.22-24.61Q224.61-27.34 225.47-29.82L225.47-29.82L225.47-29.82Q226.33-32.30 227.71-34.45L227.71-34.45L227.71-34.45Q229.10-36.60 231.09-38.16L231.09-38.16L231.09-38.16Q233.09-39.73 235.74-40.63L235.74-40.63L235.74-40.63Q238.40-41.52 241.80-41.52L241.80-41.52L241.80-41.52Q250.51-41.52 254.92-36.07L254.92-36.07L254.92-36.07Q259.34-30.63 259.34-20.47L259.34-20.47L259.34-18.32L230.74-18.32L230.74-18.32Q230.74-15.04 231.45-12.52L231.45-12.52L231.45-12.52Q232.15-10 233.61-8.26L233.61-8.26L233.61-8.26Q235.08-6.52 237.32-5.63L237.32-5.63L237.32-5.63Q239.57-4.73 242.66-4.73L242.66-4.73L242.66-4.73Q244.38-4.73 246.07-4.98L246.07-4.98L246.07-4.98Q247.77-5.23 249.38-5.64L249.38-5.64L249.38-5.64Q250.98-6.05 252.44-6.56L252.44-6.56L252.44-6.56Q253.91-7.07 255.20-7.54L255.20-7.54zM230.94-23.71L252.58-23.71L252.58-23.71Q252.27-30.04 249.55-32.95L249.55-32.95L249.55-32.95Q246.84-35.86 241.80-35.86L241.80-35.86L241.80-35.86Q236.76-35.86 234.12-32.95L234.12-32.95L234.12-32.95Q231.48-30.04 230.94-23.71L230.94-23.71" fill="#28292f" stroke="none" stroke-width="none" transform="translate(-248.14501953125,18.92291272844588)" style="fill: rgb(40, 41, 47);"></path></g><g class="path" style="transform: translateX(-78.4752px) skewX(30deg); opacity: 0; transform-origin: 25.545px -32.9721px; animation: 1s linear 0.33s 1 normal forwards running rush-ltr-in-081937c6-6403-42da-952b-ffb769b5a955;"><path d="M273.75-56.37L273.75-56.37L273.75-56.37Q275.55-56.37 276.88-55.12L276.88-55.12L276.88-55.12Q278.16-53.75 278.16-51.91L278.16-51.91L278.16-51.91Q278.16-50.04 276.88-48.75L276.88-48.75L276.88-48.75Q275.55-47.42 273.75-47.42L273.75-47.42L273.75-47.42Q271.88-47.42 270.55-48.75L270.55-48.75L270.55-48.75Q269.22-50 269.22-51.91L269.22-51.91L269.22-51.91Q269.22-53.79 270.55-55.12L270.55-55.12L270.55-55.12Q271.88-56.37 273.75-56.37" fill="#28292f" stroke="none" stroke-width="none" transform="translate(-248.14501953125,18.92291272844588)" style="fill: rgb(40, 41, 47);"></path></g><g class="path" style="transform: translateX(-78.4752px) skewX(30deg); opacity: 0; transform-origin: 25.525px -1.39209px; animation: 1s linear 0.377143s 1 normal forwards running rush-ltr-in-081937c6-6403-42da-952b-ffb769b5a955;"><path d="M270.31 0L270.31-40.63L277.03-40.63L277.03 0L270.31 0" fill="#28292f" stroke="none" stroke-width="none" transform="translate(-248.14501953125,18.92291272844588)" style="fill: rgb(40, 41, 47);"></path></g><g class="path" style="transform: translateX(-78.4752px) skewX(30deg); opacity: 0; transform-origin: 58.87px -1.83709px; animation: 1s linear 0.424286s 1 normal forwards running rush-ltr-in-081937c6-6403-42da-952b-ffb769b5a955;"><path d="M289.73-39.92L289.73-39.92L296.21-41.37L296.21-41.37Q296.95-39.02 297.27-36.84L297.27-36.84L297.27-36.84Q297.42-35.78 297.66-32.66L297.66-32.66L298.48-32.66L298.48-32.66Q300.63-36.60 303.79-38.95L303.79-38.95L303.79-38.95Q307.27-41.52 311.13-41.52L311.13-41.52L311.13-41.52Q316.95-41.52 320-38.71L320-38.71L320-38.71Q322.62-36.33 323.63-31.41L323.63-31.41L323.63-31.41Q324.30-28.05 324.30-21.41L324.30-21.41L324.30 0L317.58 0L317.58-23.28L317.58-23.28Q317.58-29.10 316.45-31.60L316.45-31.60L316.45-31.60Q314.77-35.31 309.69-35.31L309.69-35.31L309.69-35.31Q306.09-35.31 302.66-31.88L302.66-31.88L302.66-31.88Q300.35-29.57 297.73-25.12L297.73-25.12L297.73 0L291.02 0L291.02-25L291.02-25Q291.02-30.27 290.74-34.10L290.74-34.10L290.74-34.10Q290.59-36.48 289.73-39.92" fill="#28292f" stroke="none" stroke-width="none" transform="translate(-248.14501953125,18.92291272844588)" style="fill: rgb(40, 41, 47);"></path></g><g class="path" style="transform: translateX(-78.4752px) skewX(30deg); opacity: 0; transform-origin: 115.35px -1.83709px; animation: 1s linear 0.471429s 1 normal forwards running rush-ltr-in-081937c6-6403-42da-952b-ffb769b5a955;"><path d="M342.54 0L335.82 0L335.82-25.12L335.82-25.12Q335.82-31.13 335.55-34.18L335.55-34.18L335.55-34.18Q335.39-36.56 334.53-40L334.53-40L340.94-41.45L340.94-41.45Q341.68-39.10 341.99-36.91L341.99-36.91L341.99-36.91Q342.15-36.09 342.38-32.66L342.38-32.66L343.20-32.66L343.20-32.66Q345.20-36.64 348.20-38.91L348.20-38.91L348.20-38.91Q351.45-41.52 355.59-41.52L355.59-41.52L355.59-41.52Q357.93-41.52 360.12-40.68L360.12-40.68L360.12-40.68Q362.30-39.84 363.79-38.32L363.79-38.32L363.79-38.32Q366.02-36.13 366.95-31.84L366.95-31.84L367.42-31.84L367.42-31.84Q369.77-36.37 372.93-38.79L372.93-38.79L372.93-38.79Q376.33-41.52 380.55-41.52L380.55-41.52L380.55-41.52Q385.66-41.52 388.40-38.67L388.40-38.67L388.40-38.67Q390.78-36.29 391.76-31.41L391.76-31.41L391.76-31.41Q392.46-27.85 392.46-21.48L392.46-21.48L392.46 0L385.74 0L385.74-23.36L385.74-23.36Q385.74-26.45 385.39-28.44L385.39-28.44L385.39-28.44Q384.84-31.52 383.44-33.24L383.44-33.24L383.44-33.24Q381.68-35.31 378.52-35.31L378.52-35.31L378.52-35.31Q374.92-35.31 371.88-31.88L371.88-31.88L371.88-31.88Q370.04-29.80 367.50-25.47L367.50-25.47L367.50-25.47Q367.58-24.80 367.58-23.52L367.58-23.52L367.58 0L360.86 0L360.86-23.36L360.86-23.36Q360.86-28.32 359.88-30.98L359.88-30.98L359.88-30.98Q358.24-35.31 353.67-35.31L353.67-35.31L353.67-35.31Q350.16-35.31 346.99-31.80L346.99-31.80L346.99-31.80Q345.16-29.77 342.54-25.04L342.54-25.04L342.54 0" fill="#28292f" stroke="none" stroke-width="none" transform="translate(-248.14501953125,18.92291272844588)" style="fill: rgb(40, 41, 47);"></path></g><g class="path" style="transform: translateX(-78.4752px) skewX(30deg); opacity: 0; transform-origin: 170.51px -1.36709px; animation: 1s linear 0.518571s 1 normal forwards running rush-ltr-in-081937c6-6403-42da-952b-ffb769b5a955;"><path d="M432.27-7.54L434.22-2.27L434.22-2.27Q429.88-0.55 426.07 0.20L426.07 0.20L426.07 0.20Q422.27 0.94 419.26 0.94L419.26 0.94L419.26 0.94Q414.65 0.94 411.21-0.53L411.21-0.53L411.21-0.53Q407.77-1.99 405.49-4.65L405.49-4.65L405.49-4.65Q403.20-7.30 402.05-11.00L402.05-11.00L402.05-11.00Q400.90-14.69 400.90-19.14L400.90-19.14L400.90-19.14Q400.90-21.88 401.29-24.61L401.29-24.61L401.29-24.61Q401.68-27.34 402.54-29.82L402.54-29.82L402.54-29.82Q403.40-32.30 404.79-34.45L404.79-34.45L404.79-34.45Q406.17-36.60 408.16-38.16L408.16-38.16L408.16-38.16Q410.16-39.73 412.81-40.63L412.81-40.63L412.81-40.63Q415.47-41.52 418.87-41.52L418.87-41.52L418.87-41.52Q427.58-41.52 431.99-36.07L431.99-36.07L431.99-36.07Q436.41-30.63 436.41-20.47L436.41-20.47L436.41-18.32L407.81-18.32L407.81-18.32Q407.81-15.04 408.52-12.52L408.52-12.52L408.52-12.52Q409.22-10 410.68-8.26L410.68-8.26L410.68-8.26Q412.15-6.52 414.39-5.63L414.39-5.63L414.39-5.63Q416.64-4.73 419.73-4.73L419.73-4.73L419.73-4.73Q421.45-4.73 423.14-4.98L423.14-4.98L423.14-4.98Q424.84-5.23 426.45-5.64L426.45-5.64L426.45-5.64Q428.05-6.05 429.51-6.56L429.51-6.56L429.51-6.56Q430.98-7.07 432.27-7.54L432.27-7.54zM408.01-23.71L429.65-23.71L429.65-23.71Q429.34-30.04 426.62-32.95L426.62-32.95L426.62-32.95Q423.91-35.86 418.87-35.86L418.87-35.86L418.87-35.86Q413.83-35.86 411.19-32.95L411.19-32.95L411.19-32.95Q408.55-30.04 408.01-23.71L408.01-23.71" fill="#28292f" stroke="none" stroke-width="none" transform="translate(-248.14501953125,18.92291272844588)" style="fill: rgb(40, 41, 47);"></path></g><g class="path" style="transform: translateX(-78.4752px) skewX(30deg); opacity: 0; transform-origin: 210.175px -1.83709px; animation: 1s linear 0.565714s 1 normal forwards running rush-ltr-in-081937c6-6403-42da-952b-ffb769b5a955;"><path d="M453.83-31.21L454.18-31.21L454.18-31.21Q455.39-33.63 456.78-35.59L456.78-35.59L456.78-35.59Q458.16-37.54 459.84-38.91L459.84-38.91L459.84-38.91Q461.37-40.23 463.20-40.88L463.20-40.88L463.20-40.88Q465.04-41.52 467.38-41.52L467.38-41.52L467.38-41.52Q468.16-41.52 469.20-41.45L469.20-41.45L469.20-41.45Q470.23-41.37 471.17-41.17L471.17-41.17L471.17-41.17Q471.02-39.22 470.80-37.50L470.80-37.50L470.80-37.50Q470.59-35.78 470.23-34.02L470.23-34.02L470.23-34.02Q468.28-34.38 466.66-34.53L466.66-34.53L466.66-34.53Q465.04-34.69 463.59-34.45L463.59-34.45L463.59-34.45Q461.88-34.14 460.61-33.30L460.61-33.30L460.61-33.30Q459.34-32.46 458.26-31.07L458.26-31.07L458.26-31.07Q457.19-29.69 456.17-27.75L456.17-27.75L456.17-27.75Q455.16-25.82 453.95-23.32L453.95-23.32L453.95 0L447.23 0L447.23-25.04L447.23-25.04Q447.23-27.50 447.17-29.38L447.17-29.38L447.17-29.38Q447.11-31.25 446.93-32.95L446.93-32.95L446.93-32.95Q446.76-34.65 446.41-36.31L446.41-36.31L446.41-36.31Q446.05-37.97 445.47-40L445.47-40L445.47-40Q447.11-40.43 448.69-40.78L448.69-40.78L448.69-40.78Q450.27-41.13 451.91-41.45L451.91-41.45L451.91-41.45Q452.46-39.88 452.79-38.67L452.79-38.67L452.79-38.67Q453.13-37.46 453.32-36.31L453.32-36.31L453.32-36.31Q453.52-35.16 453.61-33.96L453.61-33.96L453.61-33.96Q453.71-32.77 453.83-31.21L453.83-31.21" fill="#28292f" stroke="none" stroke-width="none" transform="translate(-248.14501953125,18.92291272844588)" style="fill: rgb(40, 41, 47);"></path></g><g class="path" style="transform: translateX(-78.4752px) skewX(30deg); opacity: 0; transform-origin: 242.13px -5.56709px; animation: 1s linear 0.612857s 1 normal forwards running rush-ltr-in-081937c6-6403-42da-952b-ffb769b5a955;"><path d="M483.01-40.63L483.01-49.92L489.73-49.92L489.73-40.63L503.40-40.63L503.40-34.96L489.73-34.96L489.73-11.64L489.73-11.64Q489.73-9.30 489.86-8.07L489.86-8.07L489.86-8.07Q490-6.84 490.55-6.13L490.55-6.13L490.55-6.13Q491.56-4.73 494.65-4.73L494.65-4.73L494.65-4.73Q496.37-4.73 497.97-5.08L497.97-5.08L497.97-5.08Q499.61-5.43 500.98-5.86L500.98-5.86L500.98-5.86Q502.07-3.48 502.97-0.63L502.97-0.63L502.97-0.63Q498.36 0.94 493.67 0.94L493.67 0.94L493.67 0.94Q490.27 0.94 488.22 0.18L488.22 0.18L488.22 0.18Q486.17-0.59 485-2.30L485-2.30L485-2.30Q483.79-4.10 483.40-6.60L483.40-6.60L483.40-6.60Q483.01-9.10 483.01-13.52L483.01-13.52L483.01-34.96L477.15-34.96L477.15-40.63L483.01-40.63" fill="#28292f" stroke="none" stroke-width="none" transform="translate(-248.14501953125,18.92291272844588)" style="fill: rgb(40, 41, 47);"></path></g></g>
</g>
</g>
<style id="rush-ltr-in-081937c6-6403-42da-952b-ffb769b5a955" data-anikit="">@keyframes rush-ltr-in-081937c6-6403-42da-952b-ffb769b5a955 {
  0% { animation-timing-function: cubic-bezier(0,0.5,0.5,1); opacity: 0 }
  5% { opacity: 1}
  0% { transform: translateX(-78.47520861406802px) skewX(30deg); }
30% { transform: translateX(2.5743741577959263px) skewX(-15deg); }
40% { transform: translateX(8.574374157795926px) skewX(-15deg); }
55.00000000000001% { transform: translateX(-4.212879922796667px) skewX(7.5deg); }
70% { transform: translateX(2.097390810087623px) skewX(-3.75deg); }
80% { transform: translateX(0px) skewX(0deg); }
100% { transform: translateX(0px) skewX(0deg); }

  100% { opacity: 1}
}</style></svg>